# xmcd CD database file
#
# Track frame offsets:
#	150
#	25962
#	51169
#	70800
#	75658
#	96211
#
# Disc length: 1690 seconds
#
# Revision: 0
# Processed by: cddbd v1.5.2PL0 Copyright (c) Steve Scherf et al.
# Submitted via: CDex 1.70beta3
#
DISCID=46069806
DTITLE=Chris Pitsiokos Quartet - One Eye with a Microscope Attached
DYEAR=2016
DGENRE=Jazz
TTITLE0=Dogwood
TTITLE1=Fried
TTITLE2=Droll Noon
TTITLE3=Improvisation
TTITLE4=Atomic Instruction
TTITLE5=One Eye with a Microscope Attached
EXTD=YEAR: 2016
EXTT0=
EXTT1=
EXTT2=
EXTT3=
EXTT4=
EXTT5=
PLAYORDER=
